<?xml version="1.0" standalone="no"?>
<!DOCTYPE svg PUBLIC "-//W3C//DTD SVG 20010904//EN"
 "http://www.w3.org/TR/2001/REC-SVG-20010904/DTD/svg10.dtd">
<svg version="1.0" xmlns="http://www.w3.org/2000/svg"
 width="258.000000pt" height="305.000000pt" viewBox="0 0 258.000000 305.000000"
 preserveAspectRatio="xMidYMid meet">

<g transform="translate(0.000000,305.000000) scale(0.100000,-0.100000)"
fill="#000000" stroke="none">
<path d="M1486 2963 c4 -16 13 -45 20 -66 11 -29 11 -60 5 -127 -10 -96 -19
-121 -53 -144 -12 -9 -27 -30 -32 -48 -10 -29 -15 -33 -53 -36 -23 -2 -47 -10
-53 -18 -7 -7 -19 -14 -27 -14 -8 0 13 -23 46 -50 34 -28 61 -55 61 -59 0 -5
-6 -14 -14 -20 -8 -7 -18 -27 -21 -44 -4 -18 -13 -42 -20 -53 -8 -12 -17 -48
-21 -82 -6 -54 -4 -61 15 -71 17 -10 26 -6 59 24 22 19 46 35 55 35 27 0 56
47 51 83 -4 26 4 45 38 97 41 62 45 65 96 74 39 7 62 5 94 -6 29 -10 92 -16
193 -17 83 -2 154 -5 158 -8 11 -6 46 38 47 59 0 10 -13 24 -30 33 -16 8 -37
26 -45 39 -9 13 -37 33 -64 45 -40 17 -60 19 -122 14 -41 -3 -86 -12 -101 -19
-30 -15 -114 -19 -122 -5 -3 4 4 32 15 62 71 186 72 198 12 271 -35 44 -40 46
-100 53 -34 4 -65 11 -68 16 -13 20 -25 8 -19 -18z"/>
<path d="M757 2728 c3 -58 12 -122 20 -146 14 -37 14 -45 2 -56 -20 -18 -127
-46 -178 -46 -23 0 -61 -4 -84 -10 -23 -5 -63 -12 -89 -15 -43 -6 -48 -9 -48
-31 0 -33 17 -64 35 -64 7 0 27 -12 45 -26 l31 -26 97 13 c75 10 105 18 130
38 42 31 56 24 94 -50 24 -45 28 -66 28 -134 0 -77 1 -80 27 -92 31 -15 44 -6
89 58 25 36 26 42 15 81 -7 24 -16 77 -20 118 -8 72 -8 76 17 103 14 15 42 35
61 45 53 25 46 43 -19 48 -68 6 -78 15 -63 55 11 29 10 33 -17 57 -17 15 -30
31 -30 37 0 6 -13 24 -30 40 -19 18 -30 39 -30 56 0 21 -5 28 -27 31 -16 3
-35 8 -44 12 -14 6 -16 -4 -12 -96z"/>
<path d="M1045 2130 c-4 -7 2 -25 14 -41 29 -39 47 -124 32 -156 -16 -36 -14
-42 16 -40 22 2 29 -3 31 -20 4 -28 20 -32 112 -30 l74 2 7 33 c3 17 12 38 18
46 10 12 9 20 -2 38 -8 13 -18 37 -21 53 -4 17 -19 44 -34 62 -25 30 -33 33
-117 42 -49 5 -97 12 -106 16 -10 3 -20 1 -24 -5z"/>
<path d="M1835 1808 c-11 -6 -42 -30 -70 -53 -27 -22 -65 -47 -83 -54 -18 -8
-52 -28 -75 -45 -23 -17 -51 -36 -62 -42 -42 -22 -70 -40 -108 -66 -21 -15
-54 -32 -73 -38 -19 -7 -65 -32 -102 -56 -37 -24 -73 -44 -81 -44 -7 0 -40
-18 -73 -40 -33 -22 -69 -40 -79 -40 -19 0 -83 -32 -109 -55 -8 -7 -39 -21
-67 -30 -30 -10 -53 -23 -53 -31 0 -18 -52 -44 -90 -44 -16 0 -47 -9 -67 -20
-21 -11 -43 -20 -50 -20 -7 0 -13 -4 -13 -10 0 -15 82 -12 105 3 11 8 38 15
60 15 25 1 45 8 53 19 11 15 16 16 33 5 18 -12 24 -11 45 9 19 18 26 20 39 9
12 -10 23 -7 62 15 27 15 55 33 63 40 8 7 28 15 44 19 17 4 35 13 40 20 6 7
45 23 86 36 41 12 86 28 100 35 14 7 70 23 125 36 76 18 107 30 128 51 30 30
239 138 267 138 9 0 28 8 41 18 13 10 49 26 79 36 91 31 105 55 44 81 -27 11
-35 19 -30 31 3 9 -3 31 -15 50 -17 29 -26 34 -57 34 -20 0 -46 -6 -57 -12z"/>
<path d="M1110 1694 c-37 -10 -74 -13 -110 -9 -38 4 -70 1 -100 -10 -40 -14
-47 -14 -96 5 l-54 20 -37 -26 c-37 -25 -42 -26 -183 -24 -80 1 -151 2 -157 1
-16 -1 -17 -44 -1 -143 9 -62 9 -85 -2 -117 -9 -29 -10 -44 -2 -53 6 -8 12
-38 14 -68 4 -64 28 -77 39 -22 4 19 12 39 18 45 6 6 11 21 11 34 0 13 8 26
18 30 9 4 26 15 37 25 28 27 95 69 125 79 40 12 143 49 168 59 56 25 69 29 97
33 17 3 68 17 115 32 121 38 180 55 219 65 34 9 69 35 60 45 -15 14 -128 14
-179 -1z"/>
<path d="M451 1066 c-8 -10 -9 -16 -1 -21 5 -3 10 -15 10 -26 0 -25 17 -25 25
1 7 22 -2 60 -14 60 -5 0 -14 -6 -20 -14z"/>
<path d="M74 1033 c-11 -39 -5 -92 14 -121 l16 -25 141 6 c77 3 164 1 193 -4
28 -5 74 -13 101 -17 27 -4 61 -17 77 -27 16 -11 37 -18 47 -16 10 1 38 -9 62
-23 24 -14 54 -26 67 -26 20 0 97 -33 138 -59 8 -5 27 -12 42 -15 14 -3 47
-22 72 -41 31 -24 57 -35 79 -35 18 0 37 -4 43 -10 11 -11 90 -40 208 -76 44
-14 87 -31 95 -38 24 -22 149 -86 167 -86 9 0 42 -16 74 -35 32 -19 67 -35 78
-35 11 0 33 -11 49 -24 15 -13 45 -31 66 -39 41 -18 55 -40 38 -61 -8 -10 -5
-19 15 -37 14 -13 30 -34 35 -46 5 -13 15 -23 24 -23 8 0 15 -7 15 -15 0 -18
68 -48 89 -40 14 6 13 9 -5 24 -18 15 -20 23 -14 62 4 24 11 53 15 64 12 31
57 75 76 75 9 0 29 16 43 35 15 19 34 35 43 35 9 0 37 10 63 22 36 17 53 33
68 65 12 23 30 44 41 48 29 9 36 37 12 56 -26 21 -148 20 -161 -2 -8 -11 -13
-12 -30 -1 -11 6 -39 12 -62 12 -77 0 -223 21 -251 36 -15 9 -36 12 -47 9 -10
-3 -41 2 -67 11 -26 10 -95 21 -153 26 -171 12 -193 17 -216 45 -17 20 -33 26
-85 30 -35 3 -76 12 -91 19 -15 8 -36 14 -46 14 -11 0 -31 9 -46 21 -22 17
-24 24 -15 41 12 23 5 35 -13 22 -31 -23 -87 -35 -108 -24 -12 6 -27 9 -35 6
-7 -2 -30 4 -52 15 -39 19 -122 45 -178 56 -16 3 -39 12 -50 19 -11 8 -34 14
-52 14 -21 0 -40 8 -50 20 -11 13 -30 20 -53 20 -19 0 -53 7 -75 14 -39 14
-40 14 -48 -10 -9 -25 -31 -32 -42 -14 -4 6 -14 9 -23 8 -9 -2 -21 7 -28 20
-16 33 -74 59 -117 54 -20 -2 -58 3 -83 12 -72 24 -100 21 -110 -11z"/>
</g>
</svg>
