<?xml version="1.0" encoding="utf-8"?>
<svg id="master-artboard" viewBox="0 0 302.24432373046875 729.2466430664062" version="1.1" xmlns="http://www.w3.org/2000/svg" x="0px" y="0px" style="enable-background:new 0 0 1400 980;" width="302.24432373046875px" height="729.2466430664062px"><rect id="ee-background" x="0" y="0" width="302.24432373046875" height="729.2466430664062" style="fill: white; fill-opacity: 0; pointer-events: none;"/><defs><style id="ee-google-fonts">@import url(https://fonts.googleapis.com/css?family=Roboto:100,100italic,300,300italic,400,400italic,500,500italic,700,700italic,900,900italic);</style></defs>























































































































<g transform="matrix(4.073228359222412, 0, 0, 4.073228359222412, -360.8562927246094, -45.21122843193143)"><g transform="translate(0.000000,200.000000) scale(0.100000,-0.100000)" fill="#000000" stroke="none">

<path d="M1170 1849 c-8 -28 -9 -81 -5 -156 l7 -113 -23 0 c-62 0 -119 69&#10;-119 143 0 46 -18 94 -37 102 -31 11 -47 -20 -45 -86 4 -150 60 -226 181 -245&#10;34 -5 41 -10 41 -29 0 -21 -5 -23 -69 -27 -131 -7 -192 -79 -199 -238 -5 -112&#10;11 -197 43 -230 24 -24 31 -25 130 -24 l105 1 0 -51 c0 -28 -4 -56 -8 -62 -4&#10;-6 -29 -14 -57 -18 -27 -3 -61 -14 -75 -24 -37 -27 -87 -134 -116 -247 -48&#10;-186 -43 -415 10 -415 35 0 47 44 52 185 2 76 10 159 18 185 8 26 18 74 21&#10;106 10 76 26 108 67 126 52 24 88 30 89 16 0 -7 0 -130 0 -273 -1 -273 4 -325&#10;38 -358 20 -21 21 -21 42 -1 22 19 22 19 15 332 l-6 312 28 0 c37 0 92 -18&#10;115 -38 62 -54 153 -391 145 -542 -3 -64 -3 -65 24 -68 44 -5 51 27 38 177&#10;-31 359 -106 499 -288 534 l-62 12 0 55 0 56 96 12 c104 12 156 33 188 76 19&#10;25 21 41 20 155 -2 196 -24 224 -187 243 -50 5 -99 13 -107 18 -28 14 -16 34&#10;25 42 100 21 156 51 181 99 23 46 36 122 29 177 -11 90 -56 80 -69 -16 -17&#10;-115 -55 -162 -132 -162 l-44 0 0 113 c0 131 -16 180 -62 185 -24 3 -28 -1&#10;-38 -39z m8 -661 l2 -176 -50 -11 c-111 -24 -150 -6 -152 70 -1 79 21 111 62&#10;89 22 -12 65 2 73 24 9 22 -18 39 -51 31 -20 -4 -36 0 -55 15 -51 41 -24 103&#10;50 115 21 3 52 10 68 14 17 5 35 8 40 7 6 -2 11 -72 13 -178z m267 168 c27&#10;-12 35 -22 41 -50 8 -47 0 -66 -30 -66 -27 0 -123 -35 -144 -52 -21 -18 -5&#10;-23 86 -28 84 -5 86 -6 93 -33 18 -68 -30 -105 -147 -114 -59 -5 -74 -3 -75 8&#10;-1 8 -4 89 -8 182 l-6 167 78 0 c44 0 92 -6 112 -14z"/>
</g></g></svg>