<?xml version="1.0" standalone="no"?>
<!DOCTYPE svg PUBLIC "-//W3C//DTD SVG 20010904//EN"
 "http://www.w3.org/TR/2001/REC-SVG-20010904/DTD/svg10.dtd">
<svg version="1.0" xmlns="http://www.w3.org/2000/svg"
 width="541.000000pt" height="540.000000pt" viewBox="0 0 541.000000 540.000000"
 preserveAspectRatio="xMidYMid meet">

<g transform="translate(0.000000,540.000000) scale(0.100000,-0.100000)"
fill="#000000" stroke="none">
<path d="M3469 4872 c-37 -11 -39 -28 -39 -392 l0 -357 -23 -21 c-21 -19 -34
-22 -119 -22 -77 0 -98 3 -109 17 -11 12 -15 69 -19 228 -5 226 -10 245 -55
245 -15 0 -36 -16 -60 -45 l-36 -45 3 -216 3 -216 47 -43 c52 -47 81 -54 219
-54 113 0 163 -32 174 -111 4 -28 2 -56 -4 -68 -6 -11 -13 -56 -17 -102 -6
-65 -4 -84 7 -91 21 -13 25 -12 64 23 60 52 78 99 82 213 2 55 9 110 15 122
13 26 48 40 144 54 119 17 132 21 147 38 20 22 76 189 83 248 4 26 11 53 15
59 15 19 12 205 -4 248 -16 44 -36 56 -81 46 -37 -7 -56 -39 -56 -97 0 -23 -4
-44 -9 -47 -5 -3 -12 -43 -16 -88 -4 -46 -11 -87 -15 -93 -4 -5 -10 -41 -13
-79 -8 -81 -20 -98 -88 -121 -60 -19 -75 -15 -119 30 l-33 34 2 121 c0 71 6
131 13 143 7 14 12 85 12 202 1 207 -5 229 -67 237 -19 2 -41 2 -48 0z"/>
<path d="M2090 4768 c-19 -31 -20 -52 -20 -330 l0 -296 -31 -26 c-38 -32 -43
-32 -112 -1 -88 38 -112 99 -125 315 -4 58 -11 111 -15 118 -9 13 -93 17 -122
6 -28 -11 -45 -71 -45 -162 0 -91 7 -123 48 -214 43 -96 130 -161 276 -205 44
-13 72 -30 104 -61 43 -43 44 -44 37 -95 -3 -29 -8 -87 -11 -129 -5 -77 -5
-78 21 -90 22 -10 32 -9 53 3 52 29 78 102 88 249 3 36 7 75 9 87 8 34 82 83
126 83 81 0 178 70 214 155 24 54 34 351 13 378 -17 23 -110 34 -126 15 -6 -7
-14 -73 -18 -147 -8 -161 -18 -197 -68 -257 -51 -61 -95 -80 -135 -59 -17 8
-33 20 -37 26 -10 17 -4 420 7 464 13 46 13 68 4 110 -10 40 -63 95 -92 95
-16 0 -30 -11 -43 -32z"/>
<path d="M2712 3849 c-14 -5 -22 -17 -22 -31 -1 -29 -17 -146 -31 -223 -6 -33
-10 -71 -10 -85 0 -14 -6 -43 -13 -65 -12 -36 -19 -42 -67 -58 -30 -9 -67 -17
-84 -18 -105 -1 -360 -19 -415 -28 -75 -13 -158 -39 -181 -58 -8 -7 -20 -13
-26 -13 -18 0 -114 -103 -130 -140 -46 -104 -70 -225 -83 -415 -5 -71 -13
-146 -19 -165 -10 -35 -22 -174 -42 -485 -5 -88 -14 -174 -19 -191 -6 -17 -10
-86 -11 -155 -2 -169 -11 -312 -58 -862 -5 -59 -13 -113 -19 -120 -5 -6 -13
-34 -17 -62 -4 -27 -11 -55 -17 -62 -5 -6 -8 -24 -6 -40 3 -28 4 -28 81 -31
76 -3 77 -3 88 25 6 15 15 36 20 45 5 9 11 36 15 60 3 24 10 52 15 63 9 19 17
101 38 375 5 63 10 225 11 360 2 135 6 250 10 255 4 6 10 69 13 140 3 72 11
144 16 160 34 100 43 143 32 163 -14 26 -15 243 -1 274 6 13 14 70 20 128 12
135 57 408 80 482 19 64 88 113 175 125 11 1 43 8 70 14 28 6 77 13 110 16
156 12 295 24 340 30 28 4 254 8 503 10 437 3 453 3 491 -17 22 -11 51 -35 65
-53 56 -73 69 -152 99 -592 7 -99 15 -185 19 -192 14 -21 14 -311 1 -324 -16
-16 -17 -83 -2 -110 5 -11 14 -122 19 -247 6 -156 13 -247 25 -292 9 -36 21
-110 27 -165 5 -55 13 -109 18 -120 5 -11 12 -74 15 -140 4 -66 11 -124 15
-130 4 -5 11 -53 15 -105 4 -52 10 -99 13 -105 4 -5 12 -37 17 -70 l10 -60 73
-3 c66 -3 72 -1 72 17 0 11 5 23 11 27 14 8 -2 113 -40 259 -6 22 -11 66 -11
97 0 31 -4 59 -9 62 -5 3 -12 54 -16 113 -3 60 -11 118 -17 130 -6 12 -11 59
-11 105 1 53 -5 93 -14 111 -32 64 -51 226 -52 450 -1 93 -5 176 -10 186 -6
10 -11 162 -12 342 -1 178 -6 362 -10 409 -17 180 -30 266 -43 295 -8 17 -22
49 -31 71 -9 23 -39 63 -65 89 -66 65 -52 63 -560 84 -135 6 -255 13 -267 16
-23 5 -23 8 -23 166 0 177 -8 213 -56 246 -40 27 -96 42 -122 32z"/>
<path d="M3010 2987 c0 -42 4 -49 53 -92 28 -26 63 -55 77 -64 22 -14 77 -57
200 -159 19 -16 53 -33 75 -37 52 -10 147 -6 160 6 12 12 -184 206 -257 256
-64 43 -233 124 -274 130 l-34 6 0 -46z"/>
<path d="M2408 2901 c-48 -47 -95 -89 -105 -95 -10 -5 -36 -24 -59 -43 -23
-18 -45 -33 -50 -33 -17 0 -203 -194 -213 -223 -15 -38 -14 -44 9 -67 29 -29
53 -25 104 18 60 50 144 113 175 133 14 9 67 53 116 97 50 45 114 103 144 129
64 58 83 91 75 132 -4 17 -9 31 -13 32 -89 9 -92 8 -183 -80z"/>
<path d="M2615 2444 c-11 -9 -49 -31 -85 -50 -92 -49 -132 -73 -156 -95 -11
-10 -25 -19 -31 -19 -6 0 -82 -70 -169 -156 -152 -151 -173 -169 -257 -214
-42 -23 -67 -68 -67 -120 0 -24 4 -30 20 -30 50 0 245 128 430 283 38 31 72
57 75 57 13 0 211 190 240 230 17 23 41 55 54 71 19 24 21 32 11 44 -16 19
-40 19 -65 -1z"/>
<path d="M2933 2443 c-38 -13 7 -125 64 -163 31 -20 101 -75 160 -125 6 -5 35
-26 63 -45 28 -19 78 -59 111 -87 l59 -53 77 1 c168 3 180 23 71 123 -40 36
-76 66 -81 66 -5 0 -25 14 -44 30 -18 17 -39 30 -44 30 -6 0 -28 14 -49 30
-21 17 -41 30 -46 30 -4 0 -15 6 -23 14 -17 15 -237 128 -281 144 -14 5 -31 7
-37 5z"/>
<path d="M3120 1785 c-16 -19 -30 -74 -41 -165 -11 -92 -25 -106 -113 -115
-77 -9 -444 -1 -467 9 -26 11 -39 52 -39 122 0 45 -6 77 -20 104 -19 38 -23
40 -65 40 -42 0 -45 -1 -55 -37 -15 -49 -7 -214 24 -563 16 -168 44 -263 87
-294 20 -14 65 -16 347 -16 344 0 344 0 406 50 29 24 64 103 72 161 4 30 11
59 16 65 11 14 4 454 -9 541 -11 78 -40 113 -94 113 -20 0 -42 -7 -49 -15z
m-72 -401 c37 -26 52 -67 52 -144 0 -82 -17 -131 -63 -178 -62 -65 -87 -72
-272 -72 -205 0 -228 8 -272 97 -23 48 -29 73 -31 151 -6 136 -3 142 61 143
28 0 61 4 72 9 11 5 112 9 225 9 171 1 209 -2 228 -15z"/>
</g>
</svg>
