<?xml version="1.0" encoding="utf-8"?>
<svg id="master-artboard" viewBox="0 0 2659.546142578125 516.4730834960938" version="1.1" xmlns="http://www.w3.org/2000/svg" x="0px" y="0px" style="enable-background:new 0 0 1400 980;" width="2659.546142578125px" height="516.4730834960938px"><rect id="ee-background" x="0" y="0" width="2659.546142578125" height="516.4730834960938" style="fill: rgb(255, 255, 255); fill-opacity: 0; pointer-events: none;"/>


<g transform="matrix(1, 0, 0, 1, -45.0001220703125, -860.0000305175781)"><path d="M404 1107 c-146 -38 -284 -190 -329 -364 -20 -75 -20 -261 0 -336 22&#10;-86 51 -135 119 -202 72 -72 120 -91 268 -107 149 -17 277 13 375 88 l33 25&#10;-7 107 c-3 59 -7 109 -9 111 -1 1 -35 -13 -75 -33 -99 -50 -155 -50 -197 -1&#10;-38 43 -47 82 -46 211 0 121 19 178 71 225 36 31 37 31 117 25 45 -3 95 -8&#10;112 -12 36 -7 39 -2 50 109 l7 67 -64 29 c-36 16 -92 36 -124 45 -83 23 -238&#10;29 -301 13z" transform="matrix(0.21938729286193848, 0, 0, -0.21938729286193848, 185.12519276049898, 1213.7844871319155)" style="fill: rgb(48, 40, 51);"/><path d="M5486 1054 c-20 -19 -22 -199 -3 -254 l12 -35 70 -3 c127 -4 113 31&#10;117 -300 2 -212 6 -293 16 -310 13 -22 14 -22 220 -20 l207 3 12 38 c9 27 13&#10;118 13 299 1 154 5 268 11 279 9 17 23 19 119 19 l110 0 0 140 0 140 -26 10&#10;c-15 6 -196 10 -444 10 -367 0 -421 -2 -434 -16z" transform="matrix(0.21938729286193848, 0, 0, -0.21938729286193848, 185.12519276049898, 1213.7844871319155)" style="fill: rgb(48, 40, 51);"/><path d="M4639 970 c-263 -25 -409 -122 -409 -273 0 -60 26 -140 57 -177 32&#10;-39 112 -90 178 -114 28 -10 58 -26 68 -34 23 -20 22 -59 -2 -72 -24 -13 -172&#10;-13 -226 0 -46 11 -71 6 -79 -16 -8 -21 21 -155 37 -171 26 -26 174 -45 312&#10;-41 125 3 133 5 207 40 85 40 160 108 184 163 19 47 17 122 -5 171 -24 53 -75&#10;94 -194 155 -95 49 -98 51 -95 82 4 43 45 62 168 79 l95 14 -3 84 c-3 55 -9&#10;90 -18 99 -17 18 -149 23 -275 11z" transform="matrix(0.21938729286193848, 0, 0, -0.21938729286193848, 185.12519276049898, 1213.7844871319155)" style="fill: rgb(206, 82, 66);"/><path d="M8885 957 c-68 -23 -98 -43 -152 -99 -91 -97 -133 -208 -133 -353 0&#10;-135 34 -235 107 -316 85 -94 243 -127 480 -99 117 13 170 39 247 121 54 57&#10;69 80 86 136 40 129 36 276 -11 383 -29 66 -139 173 -211 205 -55 25 -73 27&#10;-216 31 -114 3 -168 0 -197 -9z m226 -174 c22 -26 25 -344 5 -462 -18 -102&#10;-29 -131 -51 -131 -48 0 -66 206 -37 425 10 77 24 150 31 163 14 26 33 28 52&#10;5z" transform="matrix(0.21938729286193848, 0, 0, -0.21938729286193848, 185.12519276049898, 1213.7844871319155)" style="fill: rgb(48, 40, 51);"/><path d="M2254 939 c-15 -17 -17 -49 -17 -336 0 -266 3 -327 17 -375 27 -94 3&#10;-89 369 -86 l322 3 3 30 c1 17 -4 53 -11 80 l-13 50 -133 3 -132 3 3 72 3 72&#10;135 6 c161 8 147 6 153 24 6 15 -19 103 -35 120 -4 5 -61 12 -126 15 l-117 5&#10;-3 61 c-4 85 1 88 167 94 l136 5 -1 53 c-2 69 -20 112 -48 113 -11 1 -163 3&#10;-338 4 -301 3 -317 3 -334 -16z" transform="matrix(0.21938729286193848, 0, 0, -0.21938729286193848, 185.12519276049898, 1213.7844871319155)" style="fill: rgb(48, 40, 51);"/><path d="M3172 944 l-22 -15 1 -322 c1 -177 4 -356 8 -397 l6 -75 42 -9 c23&#10;-5 98 -5 167 -1 l126 7 0 118 c0 74 4 121 11 125 16 10 52 -28 126 -133 37&#10;-51 76 -100 87 -108 16 -11 56 -14 168 -14 135 0 148 2 158 19 15 30 14 783&#10;-2 799 -8 8 -59 12 -163 12 -194 0 -187 6 -193 -160 -3 -67 -8 -117 -13 -114&#10;-5 3 -46 60 -90 127 -45 67 -88 130 -97 140 -13 15 -34 17 -156 17 -112 0&#10;-146 -3 -164 -16z" transform="matrix(0.21938729286193848, 0, 0, -0.21938729286193848, 185.12519276049898, 1213.7844871319155)" style="fill: rgb(48, 40, 51);"/><path d="M6567 953 c-3 -5 -8 -143 -12 -308 -7 -272 -6 -306 11 -364 25 -92&#10;77 -144 159 -161 74 -15 206 -8 258 14 22 8 52 27 69 41 16 14 34 25 39 25 5&#10;0 16 -16 24 -37 l15 -36 163 6 c173 6 191 9 203 35 13 28 17 733 4 766 l-11&#10;29 -194 -6 c-107 -3 -199 -8 -205 -12 -6 -4 -10 -108 -10 -306 l0 -300 -45&#10;-20 c-84 -37 -80 -53 -80 281 -1 162 -4 305 -9 318 -4 13 -19 27 -33 33 -29&#10;11 -340 12 -346 2z" transform="matrix(0.21938729286193848, 0, 0, -0.21938729286193848, 185.12519276049898, 1213.7844871319155)" style="fill: rgb(48, 40, 51);"/><path d="M7653 945 c-9 -26 3 -218 16 -242 10 -20 19 -23 81 -23 109 0 100 25&#10;100 -270 0 -142 3 -265 6 -274 5 -14 31 -16 180 -16 169 0 174 1 188 22 11 18&#10;16 79 21 263 9 303 3 289 131 283 68 -4 97 -2 104 7 7 8 10 61 8 136 l-3 124&#10;-413 3 c-367 2 -413 0 -419 -13z" transform="matrix(0.21938729286193848, 0, 0, -0.21938729286193848, 185.12519276049898, 1213.7844871319155)" style="fill: rgb(48, 40, 51);"/><path d="M1057 933 c-11 -10 -8 -523 3 -658 13 -162 3 -155 224 -155 120 0&#10;176 4 184 12 8 8 12 57 12 155 l0 143 70 0 c86 0 85 3 93 -168 3 -67 9 -127&#10;12 -132 4 -6 78 -10 184 -10 140 0 181 3 190 14 13 15 39 762 28 790 -6 14&#10;-35 16 -217 16 -115 0 -211 -1 -211 -2 -1 -2 -4 -57 -8 -123 l-6 -120 -67 -3&#10;-68 -3 0 110 c0 60 -3 116 -6 125 -5 14 -33 16 -208 16 -112 0 -206 -3 -209&#10;-7z" transform="matrix(0.21938729286193848, 0, 0, -0.21938729286193848, 185.12519276049898, 1213.7844871319155)" style="fill: rgb(48, 40, 51);"/><path d="M9718 927 c-26 -27 -33 -315 -14 -567 21 -262 4 -244 218 -238 103 2&#10;162 8 169 15 8 8 14 62 17 143 3 72 8 132 12 135 3 2 38 -44 77 -103 85 -129&#10;148 -202 174 -202 43 0 239 120 239 146 0 7 -32 54 -70 106 -92 122 -94 132&#10;-42 175 31 25 46 48 57 85 18 61 18 80 4 131 -35 129 -169 169 -609 183 -191&#10;6 -217 5 -232 -9z m479 -148 c36 -13 43 -25 43 -76 0 -39 -4 -45 -39 -68 -21&#10;-14 -51 -27 -67 -28 l-29 -2 -3 84 c-3 89 2 101 45 101 12 0 34 -5 50 -11z" transform="matrix(0.21938729286193848, 0, 0, -0.21938729286193848, 185.12519276049898, 1213.7844871319155)" style="fill: rgb(48, 40, 51);"/><g transform="matrix(1.0935959815979004, 0, 0, 1.0935959815979004, 450.7113882525223, 550.7970257966144)"><g transform="matrix(0.16867701441088545, 0, 0, -0.16867701441088545, -29.412651481183484, 206.16655987754217)" fill="#000000" stroke="none">
<path d="M655 1862 c-103 -36 -183 -80 -208 -114 -19 -25 -20 -42 -18 -223 1&#10;-107 6 -248 11 -313 5 -64 13 -338 16 -609 4 -271 11 -498 15 -505 14 -22 62&#10;3 81 42 15 29 18 62 18 188 l0 152 33 19 c113 67 157 130 157 224 0 47 1 48&#10;45 67 36 16 45 24 45 45 0 31 -15 32 -164 5 -158 -29 -158 -29 -154 22 3 40 4&#10;42 55 58 68 22 97 42 133 92 25 34 30 51 30 97 0 52 2 58 35 84 35 28 46 57&#10;22 57 -8 0 -49 -4 -93 -10 -43 -5 -103 -11 -131 -13 l-53 -4 0 52 0 52 56 12&#10;c85 19 143 78 159 162 5 29 13 38 40 48 47 16 63 38 43 57 -10 11 -48 17 -136&#10;21 -139 7 -158 15 -143 56 11 29 32 41 168 91 78 30 127 62 117 77 -6 11 -33&#10;22 -74 32 -16 4 -56 -4 -105 -21z m15 -361 c0 -30 -38 -70 -81 -82 -52 -16&#10;-64 -5 -55 55 l7 46 65 0 c56 0 64 -2 64 -19z m20 -377 c0 -56 -69 -125 -147&#10;-149 -21 -6 -23 -3 -23 33 0 22 3 60 6 85 l7 46 51 4 c28 2 63 4 79 5 23 2 27&#10;-2 27 -24z m-6 -411 c-12 -68 -52 -123 -100 -137 -19 -6 -21 0 -31 76 -6 46&#10;-9 86 -7 90 3 5 37 8 75 8 l70 0 -7 -37z" style="fill: rgb(136, 128, 132);" transform="matrix(0.32221218943595886, 0, 0, 0.32221218943595886, 736.9047557457397, -2172.2666603835205)"/>
<path d="M1170 1849 c-8 -28 -9 -81 -5 -156 l7 -113 -23 0 c-62 0 -119 69&#10;-119 143 0 46 -18 94 -37 102 -31 11 -47 -20 -45 -86 4 -150 60 -226 181 -245&#10;34 -5 41 -10 41 -29 0 -21 -5 -23 -69 -27 -131 -7 -192 -79 -199 -238 -5 -112&#10;11 -197 43 -230 24 -24 31 -25 130 -24 l105 1 0 -51 c0 -28 -4 -56 -8 -62 -4&#10;-6 -29 -14 -57 -18 -27 -3 -61 -14 -75 -24 -37 -27 -87 -134 -116 -247 -48&#10;-186 -43 -415 10 -415 35 0 47 44 52 185 2 76 10 159 18 185 8 26 18 74 21&#10;106 10 76 26 108 67 126 52 24 88 30 89 16 0 -7 0 -130 0 -273 -1 -273 4 -325&#10;38 -358 20 -21 21 -21 42 -1 22 19 22 19 15 332 l-6 312 28 0 c37 0 92 -18&#10;115 -38 62 -54 153 -391 145 -542 -3 -64 -3 -65 24 -68 44 -5 51 27 38 177&#10;-31 359 -106 499 -288 534 l-62 12 0 55 0 56 96 12 c104 12 156 33 188 76 19&#10;25 21 41 20 155 -2 196 -24 224 -187 243 -50 5 -99 13 -107 18 -28 14 -16 34&#10;25 42 100 21 156 51 181 99 23 46 36 122 29 177 -11 90 -56 80 -69 -16 -17&#10;-115 -55 -162 -132 -162 l-44 0 0 113 c0 131 -16 180 -62 185 -24 3 -28 -1&#10;-38 -39z m8 -661 l2 -176 -50 -11 c-111 -24 -150 -6 -152 70 -1 79 21 111 62&#10;89 22 -12 65 2 73 24 9 22 -18 39 -51 31 -20 -4 -36 0 -55 15 -51 41 -24 103&#10;50 115 21 3 52 10 68 14 17 5 35 8 40 7 6 -2 11 -72 13 -178z m267 168 c27&#10;-12 35 -22 41 -50 8 -47 0 -66 -30 -66 -27 0 -123 -35 -144 -52 -21 -18 -5&#10;-23 86 -28 84 -5 86 -6 93 -33 18 -68 -30 -105 -147 -114 -59 -5 -74 -3 -75 8&#10;-1 8 -4 89 -8 182 l-6 167 78 0 c44 0 92 -6 112 -14z" style="fill: rgb(136, 128, 132);" transform="matrix(0.35042500495910645, 0, 0, 0.35042500495910645, 1163.3011327556833, -2185.303955078125)"/>
</g></g></g></svg>