<?xml version="1.0" encoding="utf-8"?>
<svg id="master-artboard" viewBox="0 0 879.9432373046875 208.48037719726562" version="1.1" xmlns="http://www.w3.org/2000/svg" x="0px" y="0px" style="enable-background:new 0 0 1400 980;" width="879.9432373046875px" height="208.48037719726562px"><rect id="ee-background" x="0" y="0" width="879.9432373046875" height="208.48037719726562" style="fill: white; fill-opacity: 0; pointer-events: none;"/><defs><style id="ee-google-fonts">@import url(https://fonts.googleapis.com/css?family=Roboto:100,100italic,300,300italic,400,400italic,500,500italic,700,700italic,900,900italic);</style></defs>























































































































<g transform="matrix(4.900000095367432, 0, 0, 4.900000095367432, -771.2608642578125, -389.3650426864624)"><g transform="translate(0.000000,200.000000) scale(0.100000,-0.100000)" fill="#000000" stroke="none">
<path d="M655 1862 c-103 -36 -183 -80 -208 -114 -19 -25 -20 -42 -18 -223 1&#10;-107 6 -248 11 -313 5 -64 13 -338 16 -609 4 -271 11 -498 15 -505 14 -22 62&#10;3 81 42 15 29 18 62 18 188 l0 152 33 19 c113 67 157 130 157 224 0 47 1 48&#10;45 67 36 16 45 24 45 45 0 31 -15 32 -164 5 -158 -29 -158 -29 -154 22 3 40 4&#10;42 55 58 68 22 97 42 133 92 25 34 30 51 30 97 0 52 2 58 35 84 35 28 46 57&#10;22 57 -8 0 -49 -4 -93 -10 -43 -5 -103 -11 -131 -13 l-53 -4 0 52 0 52 56 12&#10;c85 19 143 78 159 162 5 29 13 38 40 48 47 16 63 38 43 57 -10 11 -48 17 -136&#10;21 -139 7 -158 15 -143 56 11 29 32 41 168 91 78 30 127 62 117 77 -6 11 -33&#10;22 -74 32 -16 4 -56 -4 -105 -21z m15 -361 c0 -30 -38 -70 -81 -82 -52 -16&#10;-64 -5 -55 55 l7 46 65 0 c56 0 64 -2 64 -19z m20 -377 c0 -56 -69 -125 -147&#10;-149 -21 -6 -23 -3 -23 33 0 22 3 60 6 85 l7 46 51 4 c28 2 63 4 79 5 23 2 27&#10;-2 27 -24z m-6 -411 c-12 -68 -52 -123 -100 -137 -19 -6 -21 0 -31 76 -6 46&#10;-9 86 -7 90 3 5 37 8 75 8 l70 0 -7 -37z" transform="matrix(0.0008675132994540036, 1.0000193119049072, -1.0000193119049072, 0.0008675132994540036, 3456.51780284072, 353.64203889362034)"/>

<path d="M 604.1637573242188 1755.9256591796875 L 604.1637573242188 1755.9256591796875" style="fill: rgb(0, 0, 0); fill-opacity: 1; stroke: rgb(0, 0, 0); stroke-opacity: 1; stroke-width: 0; paint-order: fill;" transform="matrix(1, 0, 0, 1, -434.2846238554557, -3.474276990843464)"/></g></g></svg>