<?xml version="1.0" standalone="no"?>
<!DOCTYPE svg PUBLIC "-//W3C//DTD SVG 20010904//EN"
 "http://www.w3.org/TR/2001/REC-SVG-20010904/DTD/svg10.dtd">
<svg version="1.0" xmlns="http://www.w3.org/2000/svg"
 width="200.000000pt" height="200.000000pt" viewBox="0 0 200.000000 200.000000"
 preserveAspectRatio="xMidYMid meet">

<g transform="translate(0.000000,200.000000) scale(0.100000,-0.100000)"
fill="#000000" stroke="none">
<path d="M655 1862 c-103 -36 -183 -80 -208 -114 -19 -25 -20 -42 -18 -223 1
-107 6 -248 11 -313 5 -64 13 -338 16 -609 4 -271 11 -498 15 -505 14 -22 62
3 81 42 15 29 18 62 18 188 l0 152 33 19 c113 67 157 130 157 224 0 47 1 48
45 67 36 16 45 24 45 45 0 31 -15 32 -164 5 -158 -29 -158 -29 -154 22 3 40 4
42 55 58 68 22 97 42 133 92 25 34 30 51 30 97 0 52 2 58 35 84 35 28 46 57
22 57 -8 0 -49 -4 -93 -10 -43 -5 -103 -11 -131 -13 l-53 -4 0 52 0 52 56 12
c85 19 143 78 159 162 5 29 13 38 40 48 47 16 63 38 43 57 -10 11 -48 17 -136
21 -139 7 -158 15 -143 56 11 29 32 41 168 91 78 30 127 62 117 77 -6 11 -33
22 -74 32 -16 4 -56 -4 -105 -21z m15 -361 c0 -30 -38 -70 -81 -82 -52 -16
-64 -5 -55 55 l7 46 65 0 c56 0 64 -2 64 -19z m20 -377 c0 -56 -69 -125 -147
-149 -21 -6 -23 -3 -23 33 0 22 3 60 6 85 l7 46 51 4 c28 2 63 4 79 5 23 2 27
-2 27 -24z m-6 -411 c-12 -68 -52 -123 -100 -137 -19 -6 -21 0 -31 76 -6 46
-9 86 -7 90 3 5 37 8 75 8 l70 0 -7 -37z"/>
<path d="M1170 1849 c-8 -28 -9 -81 -5 -156 l7 -113 -23 0 c-62 0 -119 69
-119 143 0 46 -18 94 -37 102 -31 11 -47 -20 -45 -86 4 -150 60 -226 181 -245
34 -5 41 -10 41 -29 0 -21 -5 -23 -69 -27 -131 -7 -192 -79 -199 -238 -5 -112
11 -197 43 -230 24 -24 31 -25 130 -24 l105 1 0 -51 c0 -28 -4 -56 -8 -62 -4
-6 -29 -14 -57 -18 -27 -3 -61 -14 -75 -24 -37 -27 -87 -134 -116 -247 -48
-186 -43 -415 10 -415 35 0 47 44 52 185 2 76 10 159 18 185 8 26 18 74 21
106 10 76 26 108 67 126 52 24 88 30 89 16 0 -7 0 -130 0 -273 -1 -273 4 -325
38 -358 20 -21 21 -21 42 -1 22 19 22 19 15 332 l-6 312 28 0 c37 0 92 -18
115 -38 62 -54 153 -391 145 -542 -3 -64 -3 -65 24 -68 44 -5 51 27 38 177
-31 359 -106 499 -288 534 l-62 12 0 55 0 56 96 12 c104 12 156 33 188 76 19
25 21 41 20 155 -2 196 -24 224 -187 243 -50 5 -99 13 -107 18 -28 14 -16 34
25 42 100 21 156 51 181 99 23 46 36 122 29 177 -11 90 -56 80 -69 -16 -17
-115 -55 -162 -132 -162 l-44 0 0 113 c0 131 -16 180 -62 185 -24 3 -28 -1
-38 -39z m8 -661 l2 -176 -50 -11 c-111 -24 -150 -6 -152 70 -1 79 21 111 62
89 22 -12 65 2 73 24 9 22 -18 39 -51 31 -20 -4 -36 0 -55 15 -51 41 -24 103
50 115 21 3 52 10 68 14 17 5 35 8 40 7 6 -2 11 -72 13 -178z m267 168 c27
-12 35 -22 41 -50 8 -47 0 -66 -30 -66 -27 0 -123 -35 -144 -52 -21 -18 -5
-23 86 -28 84 -5 86 -6 93 -33 18 -68 -30 -105 -147 -114 -59 -5 -74 -3 -75 8
-1 8 -4 89 -8 182 l-6 167 78 0 c44 0 92 -6 112 -14z"/>
</g>
</svg>
